<?xml version="1.0" encoding="UTF-8" standalone="no"?>
<!DOCTYPE svg PUBLIC "-//W3C//DTD SVG 1.1//EN"
 "http://www.w3.org/Graphics/SVG/1.1/DTD/svg11.dtd">
<!-- Generated by graphviz version 2.47.0 (20210316.0004)
 -->
<!-- Title: dependencies Pages: 1 -->
<svg width="504pt" height="211pt"
 viewBox="0.00 0.00 504.00 211.00" xmlns="http://www.w3.org/2000/svg" xmlns:xlink="http://www.w3.org/1999/xlink">
<g id="graph0" class="graph" transform="scale(1 1) rotate(0) translate(4 207)">
<title>dependencies</title>
<polygon fill="white" stroke="transparent" points="-4,4 -4,-207 500,-207 500,4 -4,4"/>
<text text-anchor="start" x="227.01" y="-42.4" font-family="Times-12" font-weight="bold" font-size="14.00">Legend</text>
<polygon fill="#ffffb3" stroke="transparent" points="14,-10 14,-30 34,-30 34,-10 14,-10"/>
<text text-anchor="start" x="37.63" y="-15.4" font-family="Times-12" font-size="14.00"> &#160;Declarations</text>
<polygon fill="#8dd3c7" stroke="transparent" points="127,-10 127,-30 147,-30 147,-10 127,-10"/>
<text text-anchor="start" x="150.73" y="-15.4" font-family="Times-12" font-size="14.00"> &#160;Module</text>
<polygon fill="#80b1d3" stroke="transparent" points="213,-10 213,-30 233,-30 233,-10 213,-10"/>
<text text-anchor="start" x="236.78" y="-15.4" font-family="Times-12" font-size="14.00"> &#160;Bootstrap</text>
<polygon fill="#fdb462" stroke="transparent" points="310,-10 310,-30 330,-30 330,-10 310,-10"/>
<text text-anchor="start" x="333.67" y="-15.4" font-family="Times-12" font-size="14.00"> &#160;Providers</text>
<polygon fill="#fb8072" stroke="transparent" points="406,-10 406,-30 426,-30 426,-10 406,-10"/>
<text text-anchor="start" x="429.73" y="-15.4" font-family="Times-12" font-size="14.00"> &#160;Exports</text>
<g id="clust1" class="cluster">
<title>cluster_SeasonsPageModule</title>
<polygon fill="none" stroke="black" stroke-dasharray="1,5" points="88,-70 88,-195 408,-195 408,-70 88,-70"/>
</g>
<g id="clust2" class="cluster">
<title>cluster_SeasonsPageModule_declarations</title>
<polygon fill="none" stroke="black" points="296,-78 296,-130 400,-130 400,-78 296,-78"/>
</g>
<g id="clust4" class="cluster">
<title>cluster_SeasonsPageModule_imports</title>
<polygon fill="none" stroke="black" points="96,-78 96,-130 288,-130 288,-78 96,-78"/>
</g>
<!-- SeasonsPage -->
<g id="node1" class="node">
<title>SeasonsPage</title>
<polygon fill="#ffffb3" stroke="black" points="392.31,-122 303.69,-122 303.69,-86 392.31,-86 392.31,-122"/>
<text text-anchor="middle" x="348" y="-99.8" font-family="Times,serif" font-size="14.00">SeasonsPage</text>
</g>
<!-- SeasonsPageModule -->
<g id="node2" class="node">
<title>SeasonsPageModule</title>
<polygon fill="#8dd3c7" stroke="black" points="328.86,-187 325.86,-191 304.86,-191 301.86,-187 197.14,-187 197.14,-151 328.86,-151 328.86,-187"/>
<text text-anchor="middle" x="263" y="-164.8" font-family="Times,serif" font-size="14.00">SeasonsPageModule</text>
</g>
<!-- SeasonsPage&#45;&gt;SeasonsPageModule -->
<g id="edge1" class="edge">
<title>SeasonsPage&#45;&gt;SeasonsPageModule</title>
<path fill="none" stroke="black" d="M316.39,-122.11C316.39,-122.11 316.39,-140.99 316.39,-140.99"/>
<polygon fill="black" stroke="black" points="312.89,-140.99 316.39,-150.99 319.89,-140.99 312.89,-140.99"/>
</g>
<!-- SeasonsPageRoutingModule -->
<g id="node3" class="node">
<title>SeasonsPageRoutingModule</title>
<polygon fill="#8dd3c7" stroke="black" points="280.48,-122 277.48,-126 256.48,-126 253.48,-122 103.52,-122 103.52,-86 280.48,-86 280.48,-122"/>
<text text-anchor="middle" x="192" y="-99.8" font-family="Times,serif" font-size="14.00">SeasonsPageRoutingModule</text>
</g>
<!-- SeasonsPageRoutingModule&#45;&gt;SeasonsPageModule -->
<g id="edge2" class="edge">
<title>SeasonsPageRoutingModule&#45;&gt;SeasonsPageModule</title>
<path fill="none" stroke="black" d="M238.78,-122.11C238.78,-122.11 238.78,-140.99 238.78,-140.99"/>
<polygon fill="black" stroke="black" points="235.28,-140.99 238.78,-150.99 242.28,-140.99 235.28,-140.99"/>
</g>
</g>
</svg>
