<?xml version="1.0" encoding="UTF-8" standalone="no"?>
<!DOCTYPE svg PUBLIC "-//W3C//DTD SVG 1.1//EN"
 "http://www.w3.org/Graphics/SVG/1.1/DTD/svg11.dtd">
<!-- Generated by graphviz version 2.47.0 (20210316.0004)
 -->
<!-- Title: dependencies Pages: 1 -->
<svg width="1110pt" height="284pt"
 viewBox="0.00 0.00 1110.00 284.00" xmlns="http://www.w3.org/2000/svg" xmlns:xlink="http://www.w3.org/1999/xlink">
<g id="graph0" class="graph" transform="scale(1 1) rotate(0) translate(4 280)">
<title>dependencies</title>
<polygon fill="white" stroke="transparent" points="-4,4 -4,-280 1106,-280 1106,4 -4,4"/>
<text text-anchor="start" x="530.01" y="-42.4" font-family="Times-12" font-weight="bold" font-size="14.00">Legend</text>
<polygon fill="#ffffb3" stroke="transparent" points="317,-10 317,-30 337,-30 337,-10 317,-10"/>
<text text-anchor="start" x="340.63" y="-15.4" font-family="Times-12" font-size="14.00"> &#160;Declarations</text>
<polygon fill="#8dd3c7" stroke="transparent" points="430,-10 430,-30 450,-30 450,-10 430,-10"/>
<text text-anchor="start" x="453.73" y="-15.4" font-family="Times-12" font-size="14.00"> &#160;Module</text>
<polygon fill="#80b1d3" stroke="transparent" points="516,-10 516,-30 536,-30 536,-10 516,-10"/>
<text text-anchor="start" x="539.78" y="-15.4" font-family="Times-12" font-size="14.00"> &#160;Bootstrap</text>
<polygon fill="#fdb462" stroke="transparent" points="613,-10 613,-30 633,-30 633,-10 613,-10"/>
<text text-anchor="start" x="636.67" y="-15.4" font-family="Times-12" font-size="14.00"> &#160;Providers</text>
<polygon fill="#fb8072" stroke="transparent" points="709,-10 709,-30 729,-30 729,-10 709,-10"/>
<text text-anchor="start" x="732.73" y="-15.4" font-family="Times-12" font-size="14.00"> &#160;Exports</text>
<g id="clust1" class="cluster">
<title>cluster_SharedModule</title>
<polygon fill="none" stroke="black" stroke-dasharray="1,5" points="8,-70 8,-268 1094,-268 1094,-70 8,-70"/>
</g>
<g id="clust2" class="cluster">
<title>cluster_SharedModule_declarations</title>
<polygon fill="none" stroke="black" points="30,-78 30,-130 1077,-130 1077,-78 30,-78"/>
</g>
<g id="clust10" class="cluster">
<title>cluster_SharedModule_exports</title>
<polygon fill="none" stroke="black" points="16,-208 16,-260 1086,-260 1086,-208 16,-208"/>
</g>
<!-- PictureSelectableComponent -->
<g id="node1" class="node">
<title>PictureSelectableComponent</title>
<polygon fill="#ffffb3" stroke="black" points="1069.01,-122 890.99,-122 890.99,-86 1069.01,-86 1069.01,-122"/>
<text text-anchor="middle" x="980" y="-99.8" font-family="Times,serif" font-size="14.00">PictureSelectableComponent</text>
</g>
<!-- SharedModule -->
<g id="node7" class="node">
<title>SharedModule</title>
<polygon fill="#8dd3c7" stroke="black" points="509.42,-187 506.42,-191 485.42,-191 482.42,-187 410.58,-187 410.58,-151 509.42,-151 509.42,-187"/>
<text text-anchor="middle" x="460" y="-164.8" font-family="Times,serif" font-size="14.00">SharedModule</text>
</g>
<!-- PictureSelectableComponent&#45;&gt;SharedModule -->
<g id="edge1" class="edge">
<title>PictureSelectableComponent&#45;&gt;SharedModule</title>
<path fill="none" stroke="black" d="M1011.5,-122.22C1011.5,-140.83 1011.5,-167 1011.5,-167 1011.5,-167 519.43,-167 519.43,-167"/>
<polygon fill="black" stroke="black" points="519.43,-163.5 509.43,-167 519.43,-170.5 519.43,-163.5"/>
</g>
<!-- SeasonModalComponent -->
<g id="node2" class="node">
<title>SeasonModalComponent</title>
<polygon fill="#ffffb3" stroke="black" points="872.54,-122 715.46,-122 715.46,-86 872.54,-86 872.54,-122"/>
<text text-anchor="middle" x="794" y="-99.8" font-family="Times,serif" font-size="14.00">SeasonModalComponent</text>
</g>
<!-- SeasonModalComponent&#45;&gt;SharedModule -->
<g id="edge2" class="edge">
<title>SeasonModalComponent&#45;&gt;SharedModule</title>
<path fill="none" stroke="black" d="M820.67,-122.03C820.67,-139.06 820.67,-162 820.67,-162 820.67,-162 519.39,-162 519.39,-162"/>
<polygon fill="black" stroke="black" points="519.39,-158.5 509.39,-162 519.39,-165.5 519.39,-158.5"/>
</g>
<!-- SeasonViewComponent -->
<g id="node3" class="node">
<title>SeasonViewComponent</title>
<polygon fill="#ffffb3" stroke="black" points="697.81,-122 546.19,-122 546.19,-86 697.81,-86 697.81,-122"/>
<text text-anchor="middle" x="622" y="-99.8" font-family="Times,serif" font-size="14.00">SeasonViewComponent</text>
</g>
<!-- SeasonViewComponent&#45;&gt;SharedModule -->
<g id="edge3" class="edge">
<title>SeasonViewComponent&#45;&gt;SharedModule</title>
<path fill="none" stroke="black" d="M596.78,-122.24C596.78,-137.57 596.78,-157 596.78,-157 596.78,-157 519.38,-157 519.38,-157"/>
<polygon fill="black" stroke="black" points="519.38,-153.5 509.38,-157 519.38,-160.5 519.38,-153.5"/>
</g>
<!-- SerieModalComponent -->
<g id="node4" class="node">
<title>SerieModalComponent</title>
<polygon fill="#ffffb3" stroke="black" points="528.15,-122 381.85,-122 381.85,-86 528.15,-86 528.15,-122"/>
<text text-anchor="middle" x="455" y="-99.8" font-family="Times,serif" font-size="14.00">SerieModalComponent</text>
</g>
<!-- SerieModalComponent&#45;&gt;SharedModule -->
<g id="edge4" class="edge">
<title>SerieModalComponent&#45;&gt;SharedModule</title>
<path fill="none" stroke="black" d="M460,-122.11C460,-122.11 460,-140.99 460,-140.99"/>
<polygon fill="black" stroke="black" points="456.5,-140.99 460,-150.99 463.5,-140.99 456.5,-140.99"/>
</g>
<!-- SerieSelectableComponent -->
<g id="node5" class="node">
<title>SerieSelectableComponent</title>
<polygon fill="#ffffb3" stroke="black" points="363.62,-122 196.38,-122 196.38,-86 363.62,-86 363.62,-122"/>
<text text-anchor="middle" x="280" y="-99.8" font-family="Times,serif" font-size="14.00">SerieSelectableComponent</text>
</g>
<!-- SerieSelectableComponent&#45;&gt;SharedModule -->
<g id="edge5" class="edge">
<title>SerieSelectableComponent&#45;&gt;SharedModule</title>
<path fill="none" stroke="black" d="M303.77,-122.01C303.77,-138.05 303.77,-159 303.77,-159 303.77,-159 400.57,-159 400.57,-159"/>
<polygon fill="black" stroke="black" points="400.57,-162.5 410.57,-159 400.57,-155.5 400.57,-162.5"/>
</g>
<!-- SerieViewComponent -->
<g id="node6" class="node">
<title>SerieViewComponent</title>
<polygon fill="#ffffb3" stroke="black" points="178.41,-122 37.59,-122 37.59,-86 178.41,-86 178.41,-122"/>
<text text-anchor="middle" x="108" y="-99.8" font-family="Times,serif" font-size="14.00">SerieViewComponent</text>
</g>
<!-- SerieViewComponent&#45;&gt;SharedModule -->
<g id="edge6" class="edge">
<title>SerieViewComponent&#45;&gt;SharedModule</title>
<path fill="none" stroke="black" d="M173.08,-122.27C173.08,-140.56 173.08,-166 173.08,-166 173.08,-166 400.68,-166 400.68,-166"/>
<polygon fill="black" stroke="black" points="400.68,-169.5 410.68,-166 400.68,-162.5 400.68,-169.5"/>
</g>
<!-- PictureSelectableComponent  -->
<g id="node8" class="node">
<title>PictureSelectableComponent </title>
<polygon fill="#fb8072" stroke="black" points="1078.01,-252 895.99,-252 895.99,-216 1078.01,-216 1078.01,-252"/>
<text text-anchor="middle" x="987" y="-229.8" font-family="Times,serif" font-size="14.00">PictureSelectableComponent </text>
</g>
<!-- SharedModule&#45;&gt;PictureSelectableComponent  -->
<g id="edge7" class="edge">
<title>SharedModule&#45;&gt;PictureSelectableComponent </title>
<path fill="none" stroke="black" stroke-dasharray="5,2" d="M509.6,-172C634.81,-172 953.75,-172 953.75,-172 953.75,-172 953.75,-205.73 953.75,-205.73"/>
<polygon fill="black" stroke="black" points="950.25,-205.73 953.75,-215.73 957.25,-205.73 950.25,-205.73"/>
</g>
<!-- SeasonModalComponent  -->
<g id="node9" class="node">
<title>SeasonModalComponent </title>
<polygon fill="#fb8072" stroke="black" points="877.54,-252 716.46,-252 716.46,-216 877.54,-216 877.54,-252"/>
<text text-anchor="middle" x="797" y="-229.8" font-family="Times,serif" font-size="14.00">SeasonModalComponent </text>
</g>
<!-- SharedModule&#45;&gt;SeasonModalComponent  -->
<g id="edge8" class="edge">
<title>SharedModule&#45;&gt;SeasonModalComponent </title>
<path fill="none" stroke="black" stroke-dasharray="5,2" d="M509.24,-177C596.36,-177 768.58,-177 768.58,-177 768.58,-177 768.58,-205.96 768.58,-205.96"/>
<polygon fill="black" stroke="black" points="765.08,-205.96 768.58,-215.96 772.08,-205.96 765.08,-205.96"/>
</g>
<!-- SeasonViewComponent  -->
<g id="node10" class="node">
<title>SeasonViewComponent </title>
<polygon fill="#fb8072" stroke="black" points="698.31,-252 543.69,-252 543.69,-216 698.31,-216 698.31,-252"/>
<text text-anchor="middle" x="621" y="-229.8" font-family="Times,serif" font-size="14.00">SeasonViewComponent </text>
</g>
<!-- SharedModule&#45;&gt;SeasonViewComponent  -->
<g id="edge9" class="edge">
<title>SharedModule&#45;&gt;SeasonViewComponent </title>
<path fill="none" stroke="black" stroke-dasharray="5,2" d="M509.68,-182C565.14,-182 647.22,-182 647.22,-182 647.22,-182 647.22,-205.81 647.22,-205.81"/>
<polygon fill="black" stroke="black" points="643.72,-205.81 647.22,-215.81 650.72,-205.81 643.72,-205.81"/>
</g>
<!-- SerieModalComponent  -->
<g id="node11" class="node">
<title>SerieModalComponent </title>
<polygon fill="#fb8072" stroke="black" points="526.15,-252 375.85,-252 375.85,-216 526.15,-216 526.15,-252"/>
<text text-anchor="middle" x="451" y="-229.8" font-family="Times,serif" font-size="14.00">SerieModalComponent </text>
</g>
<!-- SharedModule&#45;&gt;SerieModalComponent  -->
<g id="edge10" class="edge">
<title>SharedModule&#45;&gt;SerieModalComponent </title>
<path fill="none" stroke="black" stroke-dasharray="5,2" d="M460,-187.11C460,-187.11 460,-205.99 460,-205.99"/>
<polygon fill="black" stroke="black" points="456.5,-205.99 460,-215.99 463.5,-205.99 456.5,-205.99"/>
</g>
<!-- SerieSelectableComponent  -->
<g id="node12" class="node">
<title>SerieSelectableComponent </title>
<polygon fill="#fb8072" stroke="black" points="357.62,-252 186.38,-252 186.38,-216 357.62,-216 357.62,-252"/>
<text text-anchor="middle" x="272" y="-229.8" font-family="Times,serif" font-size="14.00">SerieSelectableComponent </text>
</g>
<!-- SharedModule&#45;&gt;SerieSelectableComponent  -->
<g id="edge11" class="edge">
<title>SharedModule&#45;&gt;SerieSelectableComponent </title>
<path fill="none" stroke="black" stroke-dasharray="5,2" d="M410.76,-180C348.68,-180 249.98,-180 249.98,-180 249.98,-180 249.98,-205.72 249.98,-205.72"/>
<polygon fill="black" stroke="black" points="246.48,-205.72 249.98,-215.72 253.48,-205.72 246.48,-205.72"/>
</g>
<!-- SerieViewComponent  -->
<g id="node13" class="node">
<title>SerieViewComponent </title>
<polygon fill="#fb8072" stroke="black" points="167.91,-252 24.09,-252 24.09,-216 167.91,-216 167.91,-252"/>
<text text-anchor="middle" x="96" y="-229.8" font-family="Times,serif" font-size="14.00">SerieViewComponent </text>
</g>
<!-- SharedModule&#45;&gt;SerieViewComponent  -->
<g id="edge12" class="edge">
<title>SharedModule&#45;&gt;SerieViewComponent </title>
<path fill="none" stroke="black" stroke-dasharray="5,2" d="M410.72,-173C312.75,-173 102.88,-173 102.88,-173 102.88,-173 102.88,-205.7 102.88,-205.7"/>
<polygon fill="black" stroke="black" points="99.38,-205.7 102.88,-215.7 106.38,-205.7 99.38,-205.7"/>
</g>
</g>
</svg>
