<?xml version="1.0" encoding="UTF-8" standalone="no"?>
<!DOCTYPE svg PUBLIC "-//W3C//DTD SVG 1.1//EN"
 "http://www.w3.org/Graphics/SVG/1.1/DTD/svg11.dtd">
<!-- Generated by graphviz version 2.47.0 (20210316.0004)
 -->
<!-- Title: dependencies Pages: 1 -->
<svg width="670pt" height="211pt"
 viewBox="0.00 0.00 670.00 211.00" xmlns="http://www.w3.org/2000/svg" xmlns:xlink="http://www.w3.org/1999/xlink">
<g id="graph0" class="graph" transform="scale(1 1) rotate(0) translate(4 207)">
<title>dependencies</title>
<polygon fill="white" stroke="transparent" points="-4,4 -4,-207 666,-207 666,4 -4,4"/>
<text text-anchor="start" x="310.01" y="-42.4" font-family="Times-12" font-weight="bold" font-size="14.00">Legend</text>
<polygon fill="#ffffb3" stroke="transparent" points="97,-10 97,-30 117,-30 117,-10 97,-10"/>
<text text-anchor="start" x="120.63" y="-15.4" font-family="Times-12" font-size="14.00"> &#160;Declarations</text>
<polygon fill="#8dd3c7" stroke="transparent" points="210,-10 210,-30 230,-30 230,-10 210,-10"/>
<text text-anchor="start" x="233.73" y="-15.4" font-family="Times-12" font-size="14.00"> &#160;Module</text>
<polygon fill="#80b1d3" stroke="transparent" points="296,-10 296,-30 316,-30 316,-10 296,-10"/>
<text text-anchor="start" x="319.78" y="-15.4" font-family="Times-12" font-size="14.00"> &#160;Bootstrap</text>
<polygon fill="#fdb462" stroke="transparent" points="393,-10 393,-30 413,-30 413,-10 393,-10"/>
<text text-anchor="start" x="416.67" y="-15.4" font-family="Times-12" font-size="14.00"> &#160;Providers</text>
<polygon fill="#fb8072" stroke="transparent" points="489,-10 489,-30 509,-30 509,-10 489,-10"/>
<text text-anchor="start" x="512.73" y="-15.4" font-family="Times-12" font-size="14.00"> &#160;Exports</text>
<g id="clust1" class="cluster">
<title>cluster_ProfilePageModule</title>
<polygon fill="none" stroke="black" stroke-dasharray="1,5" points="8,-70 8,-195 654,-195 654,-70 8,-70"/>
</g>
<g id="clust2" class="cluster">
<title>cluster_ProfilePageModule_declarations</title>
<polygon fill="none" stroke="black" points="326,-78 326,-130 646,-130 646,-78 326,-78"/>
</g>
<g id="clust5" class="cluster">
<title>cluster_ProfilePageModule_imports</title>
<polygon fill="none" stroke="black" points="16,-78 16,-130 318,-130 318,-78 16,-78"/>
</g>
<!-- OnlyAllowedCharactersDirective -->
<g id="node1" class="node">
<title>OnlyAllowedCharactersDirective</title>
<polygon fill="#ffffb3" stroke="black" points="638.14,-122 433.86,-122 433.86,-86 638.14,-86 638.14,-122"/>
<text text-anchor="middle" x="536" y="-99.8" font-family="Times,serif" font-size="14.00">OnlyAllowedCharactersDirective</text>
</g>
<!-- ProfilePageModule -->
<g id="node3" class="node">
<title>ProfilePageModule</title>
<polygon fill="#8dd3c7" stroke="black" points="362.36,-187 359.36,-191 338.36,-191 335.36,-187 237.64,-187 237.64,-151 362.36,-151 362.36,-187"/>
<text text-anchor="middle" x="300" y="-164.8" font-family="Times,serif" font-size="14.00">ProfilePageModule</text>
</g>
<!-- OnlyAllowedCharactersDirective&#45;&gt;ProfilePageModule -->
<g id="edge1" class="edge">
<title>OnlyAllowedCharactersDirective&#45;&gt;ProfilePageModule</title>
<path fill="none" stroke="black" d="M536,-122.11C536,-141.34 536,-169 536,-169 536,-169 372.62,-169 372.62,-169"/>
<polygon fill="black" stroke="black" points="372.62,-165.5 362.62,-169 372.62,-172.5 372.62,-165.5"/>
</g>
<!-- ProfilePage -->
<g id="node2" class="node">
<title>ProfilePage</title>
<polygon fill="#ffffb3" stroke="black" points="415.81,-122 334.19,-122 334.19,-86 415.81,-86 415.81,-122"/>
<text text-anchor="middle" x="375" y="-99.8" font-family="Times,serif" font-size="14.00">ProfilePage</text>
</g>
<!-- ProfilePage&#45;&gt;ProfilePageModule -->
<g id="edge2" class="edge">
<title>ProfilePage&#45;&gt;ProfilePageModule</title>
<path fill="none" stroke="black" d="M348.39,-122.11C348.39,-122.11 348.39,-140.99 348.39,-140.99"/>
<polygon fill="black" stroke="black" points="344.89,-140.99 348.39,-150.99 351.89,-140.99 344.89,-140.99"/>
</g>
<!-- ProfilePageRoutingModule -->
<g id="node4" class="node">
<title>ProfilePageRoutingModule</title>
<polygon fill="#8dd3c7" stroke="black" points="309.98,-122 306.98,-126 285.98,-126 282.98,-122 140.02,-122 140.02,-86 309.98,-86 309.98,-122"/>
<text text-anchor="middle" x="225" y="-99.8" font-family="Times,serif" font-size="14.00">ProfilePageRoutingModule</text>
</g>
<!-- ProfilePageRoutingModule&#45;&gt;ProfilePageModule -->
<g id="edge3" class="edge">
<title>ProfilePageRoutingModule&#45;&gt;ProfilePageModule</title>
<path fill="none" stroke="black" d="M273.78,-122.11C273.78,-122.11 273.78,-140.99 273.78,-140.99"/>
<polygon fill="black" stroke="black" points="270.28,-140.99 273.78,-150.99 277.28,-140.99 270.28,-140.99"/>
</g>
<!-- SharedModule -->
<g id="node5" class="node">
<title>SharedModule</title>
<polygon fill="#8dd3c7" stroke="black" points="122.42,-122 119.42,-126 98.42,-126 95.42,-122 23.58,-122 23.58,-86 122.42,-86 122.42,-122"/>
<text text-anchor="middle" x="73" y="-99.8" font-family="Times,serif" font-size="14.00">SharedModule</text>
</g>
<!-- SharedModule&#45;&gt;ProfilePageModule -->
<g id="edge4" class="edge">
<title>SharedModule&#45;&gt;ProfilePageModule</title>
<path fill="none" stroke="black" d="M73,-122.11C73,-141.34 73,-169 73,-169 73,-169 227.37,-169 227.37,-169"/>
<polygon fill="black" stroke="black" points="227.37,-172.5 237.37,-169 227.37,-165.5 227.37,-172.5"/>
</g>
</g>
</svg>
