<?xml version="1.0" encoding="UTF-8" standalone="no"?>
<!DOCTYPE svg PUBLIC "-//W3C//DTD SVG 1.1//EN"
 "http://www.w3.org/Graphics/SVG/1.1/DTD/svg11.dtd">
<!-- Generated by graphviz version 2.47.0 (20210316.0004)
 -->
<!-- Title: dependencies Pages: 1 -->
<svg width="670pt" height="211pt"
 viewBox="0.00 0.00 670.00 211.00" xmlns="http://www.w3.org/2000/svg" xmlns:xlink="http://www.w3.org/1999/xlink">
<g id="graph0" class="graph" transform="scale(1 1) rotate(0) translate(4 207)">
<title>dependencies</title>
<polygon fill="white" stroke="transparent" points="-4,4 -4,-207 666,-207 666,4 -4,4"/>
<text text-anchor="start" x="310.01" y="-42.4" font-family="Times-12" font-weight="bold" font-size="14.00">Legend</text>
<polygon fill="#ffffb3" stroke="transparent" points="97,-10 97,-30 117,-30 117,-10 97,-10"/>
<text text-anchor="start" x="120.63" y="-15.4" font-family="Times-12" font-size="14.00"> &#160;Declarations</text>
<polygon fill="#8dd3c7" stroke="transparent" points="210,-10 210,-30 230,-30 230,-10 210,-10"/>
<text text-anchor="start" x="233.73" y="-15.4" font-family="Times-12" font-size="14.00"> &#160;Module</text>
<polygon fill="#80b1d3" stroke="transparent" points="296,-10 296,-30 316,-30 316,-10 296,-10"/>
<text text-anchor="start" x="319.78" y="-15.4" font-family="Times-12" font-size="14.00"> &#160;Bootstrap</text>
<polygon fill="#fdb462" stroke="transparent" points="393,-10 393,-30 413,-30 413,-10 393,-10"/>
<text text-anchor="start" x="416.67" y="-15.4" font-family="Times-12" font-size="14.00"> &#160;Providers</text>
<polygon fill="#fb8072" stroke="transparent" points="489,-10 489,-30 509,-30 509,-10 489,-10"/>
<text text-anchor="start" x="512.73" y="-15.4" font-family="Times-12" font-size="14.00"> &#160;Exports</text>
<g id="clust1" class="cluster">
<title>cluster_ProfilePageModule</title>
<polygon fill="none" stroke="black" stroke-dasharray="1,5" points="8,-70 8,-195 654,-195 654,-70 8,-70"/>
</g>
<g id="clust5" class="cluster">
<title>cluster_ProfilePageModule_imports</title>
<polygon fill="none" stroke="black" points="344,-78 344,-130 646,-130 646,-78 344,-78"/>
</g>
<g id="clust2" class="cluster">
<title>cluster_ProfilePageModule_declarations</title>
<polygon fill="none" stroke="black" points="16,-78 16,-130 336,-130 336,-78 16,-78"/>
</g>
<!-- OnlyAllowedCharactersDirective -->
<g id="node1" class="node">
<title>OnlyAllowedCharactersDirective</title>
<polygon fill="#ffffb3" stroke="black" points="328.14,-122 123.86,-122 123.86,-86 328.14,-86 328.14,-122"/>
<text text-anchor="middle" x="226" y="-99.8" font-family="Times,serif" font-size="14.00">OnlyAllowedCharactersDirective</text>
</g>
<!-- ProfilePageModule -->
<g id="node3" class="node">
<title>ProfilePageModule</title>
<polygon fill="#8dd3c7" stroke="black" points="375.36,-187 372.36,-191 351.36,-191 348.36,-187 250.64,-187 250.64,-151 375.36,-151 375.36,-187"/>
<text text-anchor="middle" x="313" y="-164.8" font-family="Times,serif" font-size="14.00">ProfilePageModule</text>
</g>
<!-- OnlyAllowedCharactersDirective&#45;&gt;ProfilePageModule -->
<g id="edge1" class="edge">
<title>OnlyAllowedCharactersDirective&#45;&gt;ProfilePageModule</title>
<path fill="none" stroke="black" d="M289.32,-122.11C289.32,-122.11 289.32,-140.99 289.32,-140.99"/>
<polygon fill="black" stroke="black" points="285.82,-140.99 289.32,-150.99 292.82,-140.99 285.82,-140.99"/>
</g>
<!-- ProfilePage -->
<g id="node2" class="node">
<title>ProfilePage</title>
<polygon fill="#ffffb3" stroke="black" points="105.81,-122 24.19,-122 24.19,-86 105.81,-86 105.81,-122"/>
<text text-anchor="middle" x="65" y="-99.8" font-family="Times,serif" font-size="14.00">ProfilePage</text>
</g>
<!-- ProfilePage&#45;&gt;ProfilePageModule -->
<g id="edge2" class="edge">
<title>ProfilePage&#45;&gt;ProfilePageModule</title>
<path fill="none" stroke="black" d="M65,-122.11C65,-141.34 65,-169 65,-169 65,-169 240.42,-169 240.42,-169"/>
<polygon fill="black" stroke="black" points="240.42,-172.5 250.42,-169 240.42,-165.5 240.42,-172.5"/>
</g>
<!-- ProfilePageRoutingModule -->
<g id="node4" class="node">
<title>ProfilePageRoutingModule</title>
<polygon fill="#8dd3c7" stroke="black" points="637.98,-122 634.98,-126 613.98,-126 610.98,-122 468.02,-122 468.02,-86 637.98,-86 637.98,-122"/>
<text text-anchor="middle" x="553" y="-99.8" font-family="Times,serif" font-size="14.00">ProfilePageRoutingModule</text>
</g>
<!-- ProfilePageRoutingModule&#45;&gt;ProfilePageModule -->
<g id="edge3" class="edge">
<title>ProfilePageRoutingModule&#45;&gt;ProfilePageModule</title>
<path fill="none" stroke="black" d="M553,-122.11C553,-141.34 553,-169 553,-169 553,-169 385.43,-169 385.43,-169"/>
<polygon fill="black" stroke="black" points="385.43,-165.5 375.43,-169 385.43,-172.5 385.43,-165.5"/>
</g>
<!-- SharedModule -->
<g id="node5" class="node">
<title>SharedModule</title>
<polygon fill="#8dd3c7" stroke="black" points="450.42,-122 447.42,-126 426.42,-126 423.42,-122 351.58,-122 351.58,-86 450.42,-86 450.42,-122"/>
<text text-anchor="middle" x="401" y="-99.8" font-family="Times,serif" font-size="14.00">SharedModule</text>
</g>
<!-- SharedModule&#45;&gt;ProfilePageModule -->
<g id="edge4" class="edge">
<title>SharedModule&#45;&gt;ProfilePageModule</title>
<path fill="none" stroke="black" d="M363.61,-122.11C363.61,-122.11 363.61,-140.99 363.61,-140.99"/>
<polygon fill="black" stroke="black" points="360.11,-140.99 363.61,-150.99 367.11,-140.99 360.11,-140.99"/>
</g>
</g>
</svg>
